<svg width="621" height="544" viewBox="0 0 621 544" fill="none" xmlns="http://www.w3.org/2000/svg">
    <g filter="url(#filter0_f_397_1019)">
        <path fill-rule="evenodd" clip-rule="evenodd" d="M218.736 12.1172C268.076 0.311819 305.06 21.2774 338.889 48.8377C347.349 55.7299 355.601 63.0259 363.798 70.3208C364.486 70.9329 365.173 71.545 365.86 72.1569L365.952 72.2388L365.955 72.2416C373.42 78.8885 380.85 85.505 388.341 91.7619C404.76 105.476 421.544 117.53 439.803 124.49C457.065 131.071 475.25 136.475 493.045 141.764C493.948 142.032 494.85 142.3 495.751 142.568C514.422 148.121 532.583 153.603 548.808 160.262C581.258 173.579 605.69 191.48 610.944 223.751C613.584 239.969 611.331 252.506 605.901 263.125C600.46 273.765 591.803 282.531 581.534 291.158C576.866 295.08 571.864 298.972 566.692 302.996C549.162 316.634 529.683 331.789 514.674 354.754C504.92 369.678 499.806 386.775 495.829 404.311C494.543 409.984 493.376 415.694 492.212 421.394L492.211 421.4C489.768 433.364 487.334 445.28 483.818 456.706C478.637 473.539 471.137 489.179 457.894 502.042C444.655 514.9 425.623 525.036 397.28 530.767C368.907 536.503 349.27 534.943 334.368 529.051C319.471 523.161 309.159 512.887 299.514 500.886C296.392 497 293.342 492.933 290.23 488.783L290.229 488.783C274.149 467.341 256.424 443.707 218.663 431.68C196.241 424.538 173.622 420.345 151.966 417.02C144.873 415.931 137.89 414.936 131.053 413.962L131.045 413.961L131.044 413.96C116.979 411.956 103.526 410.039 90.9836 407.571C72.3533 403.905 55.879 399.048 42.6021 390.973C29.3612 382.921 19.2635 371.646 13.4008 355.048C1.67225 321.843 13.7346 295.124 36.6155 269.975C48.0594 257.397 62.1807 245.246 77.3286 232.906C82.227 228.916 87.2347 224.904 92.2923 220.852L92.294 220.851L92.2942 220.85C102.859 212.387 113.641 203.748 124.1 194.766C139.72 181.351 147.461 164.553 151.805 146.612C155.064 133.155 156.421 118.996 157.75 105.135L157.75 105.134C158.189 100.554 158.625 96.0064 159.125 91.5274C161.146 73.4379 164.218 56.4303 172.687 42.5212C181.133 28.6527 194.987 17.7994 218.736 12.1172ZM440.359 122.87C422.429 116.035 405.858 104.161 389.49 90.4886C382.025 84.2535 374.619 77.6583 367.149 71.0071L367.146 71.0045C366.43 70.3666 365.713 69.7282 364.995 69.0896C356.799 61.7956 348.517 54.4722 340.018 47.5482C306.012 19.8437 268.364 -1.60217 218.143 10.414C193.995 16.1918 179.756 27.2843 171.07 41.5475C162.41 55.7702 159.314 73.0803 157.29 91.195C156.784 95.7303 156.344 100.314 155.903 104.915L155.903 104.916C154.576 118.749 153.234 132.745 150.005 146.082C145.71 163.818 138.094 180.284 122.8 193.42C112.362 202.384 101.618 210.992 91.0658 219.445L91.0639 219.447L91.0599 219.45C85.9975 223.506 80.9793 227.526 76.0602 231.533C60.9022 243.882 46.7034 256.095 35.1761 268.764C12.1144 294.112 -0.369856 321.426 11.6564 355.475C17.6712 372.503 28.0779 384.139 41.7058 392.427C55.2977 400.693 72.0566 405.607 90.7614 409.287C103.356 411.765 116.899 413.696 130.997 415.705L131.003 415.706C137.829 416.679 144.785 417.67 151.827 418.751C173.448 422.071 195.945 426.245 218.216 433.338C255.297 445.149 272.605 468.208 288.678 489.621C291.815 493.799 294.904 497.915 298.084 501.872C307.806 513.97 318.392 524.575 333.788 530.663C349.18 536.748 369.233 538.261 397.81 532.484C426.418 526.7 445.763 516.437 459.265 503.322C472.763 490.212 480.368 474.305 485.592 457.329C489.131 445.831 491.592 433.785 494.044 421.779L494.044 421.778C495.205 416.095 496.364 410.422 497.634 404.82C501.6 387.334 506.666 370.457 516.265 355.769C531.117 333.045 550.317 318.104 567.815 304.487L567.815 304.487L567.816 304.486C573.021 300.435 578.076 296.502 582.821 292.516C593.143 283.844 601.991 274.917 607.574 263.999C613.168 253.059 615.459 240.173 612.766 223.63C607.354 190.38 582.089 172.071 549.413 158.661C533.076 151.956 514.816 146.446 496.161 140.898C495.444 140.685 494.727 140.472 494.01 140.258L493.476 140.1L493.475 140.1C475.662 134.806 457.546 129.422 440.359 122.87ZM334.781 77.0095C305.227 52.9321 272.947 34.6394 229.881 44.9435C209.151 49.9035 197.067 59.3737 189.701 71.4692C182.311 83.6055 179.628 98.4503 177.862 114.258C177.425 118.169 177.044 122.141 176.661 126.142C175.499 138.259 174.312 150.644 171.462 162.412C167.663 178.105 160.89 192.806 147.218 204.548C138.076 212.399 128.65 219.951 119.417 227.348L119.414 227.35C114.995 230.891 110.619 234.396 106.34 237.882C93.1019 248.667 80.7653 259.282 70.7691 270.269C50.7836 292.235 40.2682 315.549 50.4998 344.516C55.6138 358.995 64.4194 368.826 75.9669 375.848C87.5505 382.893 101.93 387.134 118.208 390.337C129.166 392.493 140.917 394.168 153.207 395.919L153.209 395.92L153.21 395.92C159.188 396.772 165.294 397.642 171.499 398.595C190.427 401.501 210.203 405.166 229.808 411.411C262.852 421.936 278.37 442.628 292.423 461.368C295.142 464.993 297.806 468.545 300.531 471.936C308.954 482.419 317.949 491.377 330.938 496.512C343.931 501.649 361.066 503.016 385.85 498.005C410.604 493 427.217 484.149 438.771 472.928C450.328 461.702 456.877 448.05 461.402 433.348C464.473 423.367 466.598 412.961 468.733 402.508L468.733 402.508L468.733 402.507C469.751 397.523 470.771 392.529 471.897 387.565C475.374 372.236 479.846 357.28 488.38 344.222C501.507 324.136 518.549 310.877 533.871 298.957C538.389 295.442 542.757 292.043 546.832 288.62C555.803 281.083 563.357 273.433 568.104 264.151C572.839 254.891 574.805 243.956 572.501 229.802C567.92 201.661 546.62 186.042 518.274 174.409C504.101 168.593 488.236 163.803 471.917 158.95C471.129 158.715 470.34 158.481 469.549 158.246C453.999 153.625 438.103 148.9 423.012 143.148C407.033 137.056 392.351 126.511 377.999 114.522C371.451 109.053 364.955 103.269 358.432 97.46L358.43 97.4586L358.428 97.4565C357.801 96.8981 357.173 96.3396 356.546 95.7811C349.382 89.4057 342.172 83.031 334.781 77.0095ZM379.147 113.249C393.449 125.195 407.918 135.561 423.568 141.527C438.582 147.251 454.41 151.955 469.978 156.581L469.98 156.582L469.982 156.582C470.764 156.815 471.546 157.047 472.327 157.28C488.63 162.128 504.594 166.946 518.879 172.808C547.451 184.534 569.583 200.56 574.324 229.682C576.681 244.159 574.676 255.444 569.777 265.024C564.888 274.584 557.143 282.396 548.119 289.978C543.967 293.466 539.546 296.906 534.994 300.448C519.703 312.347 502.941 325.392 489.971 345.237C481.592 358.059 477.168 372.794 473.702 388.073C472.593 392.964 471.581 397.92 470.567 402.885L470.567 402.885L470.567 402.886C468.423 413.381 466.27 423.918 463.176 433.971C458.608 448.816 451.955 462.735 440.142 474.208C428.325 485.687 411.399 494.664 386.38 499.722C361.392 504.774 343.84 503.454 330.358 498.124C316.87 492.791 307.601 483.501 299.1 472.923C296.318 469.46 293.615 465.86 290.873 462.206C276.826 443.494 261.725 423.378 229.361 413.069C209.907 406.873 190.253 403.226 171.36 400.325C165.207 399.381 159.127 398.514 153.161 397.664L153.16 397.664L153.158 397.664C140.836 395.907 128.995 394.22 117.986 392.053C101.634 388.836 86.9692 384.538 75.0706 377.302C63.136 370.044 54.0216 359.852 48.7553 344.942C38.2261 315.132 49.1635 291.223 69.3297 269.058C79.4094 257.98 91.8233 247.302 105.071 236.51C109.373 233.005 113.761 229.49 118.187 225.945L118.187 225.944C127.409 218.556 136.797 211.036 145.918 203.202C159.264 191.739 165.912 177.37 169.662 161.882C172.483 150.233 173.655 138.012 174.814 125.924C175.2 121.901 175.584 117.893 176.027 113.926C177.796 98.0927 180.503 82.9453 188.084 70.4956C195.69 58.0052 208.159 48.2958 229.288 43.2403C273.235 32.7254 306.179 51.4984 335.91 75.72C343.34 81.7732 350.581 88.1754 357.743 94.5499C358.37 95.1076 358.996 95.665 359.622 96.222L359.623 96.2233C366.152 102.037 372.625 107.801 379.147 113.249ZM240.123 75.1364C277.418 66.2131 305.372 82.0474 330.994 102.921C337.403 108.142 343.654 113.669 349.868 119.199L350.898 120.117L351.5 120.653L351.503 120.655L351.504 120.656L351.505 120.656C357.162 125.694 362.797 130.712 368.478 135.457C380.93 145.858 393.679 155.017 407.559 160.308C420.653 165.3 434.446 169.399 447.932 173.407L449.987 174.017C464.142 178.227 477.896 182.38 490.182 187.422C514.752 197.505 533.172 211.025 537.134 235.368C539.129 247.623 537.427 257.084 533.33 265.095C529.223 273.127 522.684 279.752 514.906 286.286C511.377 289.251 507.592 292.196 503.675 295.243C490.384 305.583 475.584 317.097 464.188 334.534C456.776 345.876 452.893 358.863 449.877 372.162C448.901 376.467 448.016 380.797 447.134 385.116L447.134 385.117L447.131 385.13L447.131 385.131C445.28 394.195 443.439 403.212 440.776 411.864C436.854 424.606 431.181 436.429 421.173 446.15C411.17 455.866 396.781 463.534 375.329 467.871C353.846 472.215 339.011 471.026 327.774 466.584C316.542 462.143 308.758 454.395 301.457 445.309C299.097 442.373 296.79 439.295 294.433 436.153C282.243 419.897 268.757 401.911 240.051 392.768C223.036 387.349 205.876 384.168 189.456 381.647C184.082 380.822 178.794 380.069 173.618 379.331L173.615 379.33L173.59 379.327L173.587 379.326C162.928 377.807 152.741 376.356 143.24 374.486C129.126 371.709 116.673 368.034 106.647 361.937C96.6567 355.861 89.0397 347.358 84.6142 334.829C75.7596 309.76 84.8521 289.579 102.174 270.54C110.839 261.016 121.534 251.813 133.015 242.46C136.726 239.437 140.521 236.396 144.355 233.325C152.365 226.908 160.543 220.356 168.473 213.545C180.353 203.342 186.236 190.569 189.535 176.945C192.008 166.73 193.039 155.977 194.047 145.466L194.047 145.465L194.047 145.464L194.047 145.464C194.379 141.995 194.709 138.553 195.088 135.165C196.619 121.456 198.945 108.601 205.342 98.0951C211.714 87.6302 222.17 79.4321 240.123 75.1364ZM408.115 158.687C394.563 153.521 382.028 144.543 369.627 134.184C363.971 129.459 358.358 124.462 352.695 119.419L352.694 119.418L352.667 119.394C352.134 118.919 351.6 118.444 351.065 117.968C344.853 112.439 338.571 106.884 332.124 101.632C306.324 80.6138 277.706 64.2991 239.531 73.4332C221.178 77.8244 210.338 86.2618 203.725 97.1215C197.137 107.94 194.787 121.099 193.253 134.833C192.868 138.276 192.535 141.753 192.2 145.242L192.2 145.243L192.2 145.243L192.2 145.247C191.194 155.73 190.179 166.319 187.735 176.414C184.485 189.834 178.727 202.276 167.173 212.199C159.263 218.992 151.123 225.513 143.126 231.92L143.126 231.921L143.126 231.921L143.125 231.921L143.124 231.922L143.124 231.922C139.285 234.998 135.479 238.047 131.747 241.087C120.256 250.449 109.483 259.713 100.735 269.329C83.232 288.566 73.7175 309.344 82.8697 335.255C87.4475 348.216 95.3734 357.08 105.751 363.391C116.092 369.68 128.83 373.411 143.017 376.203C152.57 378.082 162.847 379.547 173.538 381.071H173.538L173.539 381.071C178.713 381.808 183.984 382.559 189.317 383.378C205.702 385.894 222.74 389.056 239.604 394.427C267.63 403.353 280.7 420.763 292.883 436.991C295.263 440.162 297.609 443.287 300.027 446.296C307.405 455.478 315.463 463.557 327.194 468.195C338.921 472.831 354.172 473.973 375.859 469.588C397.576 465.198 412.278 457.403 422.545 447.431C432.808 437.463 438.585 425.372 442.551 412.487C445.236 403.763 447.104 394.615 448.964 385.509C449.844 381.204 450.721 376.908 451.682 372.67C454.687 359.421 458.521 346.655 465.779 335.55C477.018 318.353 491.538 307.053 504.799 296.734C508.748 293.66 512.587 290.673 516.193 287.644C524.024 281.065 530.754 274.278 535.003 265.968C539.264 257.637 541.005 247.826 538.957 235.248C534.835 209.925 515.583 195.997 490.786 185.82C478.389 180.732 464.536 176.552 450.396 172.347L448.363 171.743C434.858 167.729 421.134 163.65 408.115 158.687ZM327.506 126.849C305.515 108.933 281.555 95.3688 249.59 103.017C234.2 106.699 225.248 113.723 219.792 122.682C214.312 131.682 212.317 142.7 211.002 154.472C210.677 157.378 210.394 160.332 210.108 163.309C209.243 172.338 208.357 181.584 206.23 190.365C203.394 202.08 198.333 213.072 188.108 221.854C181.296 227.704 174.271 233.332 167.392 238.844L167.391 238.844L167.388 238.847C164.097 241.483 160.84 244.093 157.656 246.687C147.797 254.718 138.617 262.617 131.182 270.789C116.319 287.126 108.54 304.415 116.123 325.884C119.913 336.613 126.433 343.89 134.985 349.091C143.573 354.314 154.247 357.466 166.362 359.849C174.517 361.454 183.259 362.7 192.409 364.004L192.41 364.004L192.41 364.004L192.41 364.004L192.411 364.004C196.866 364.639 201.418 365.288 206.046 365.998C220.149 368.163 234.894 370.896 249.517 375.554C274.217 383.421 285.828 398.907 296.297 412.869L296.298 412.871L296.302 412.875C298.322 415.569 300.299 418.207 302.321 420.722C308.585 428.518 315.25 435.148 324.861 438.948C334.476 442.749 347.187 443.773 365.621 440.046C384.025 436.325 396.36 429.749 404.932 421.423C413.508 413.093 418.373 402.958 421.737 392.025C424.023 384.601 425.602 376.866 427.191 369.085L427.191 369.084C427.95 365.37 428.711 361.645 429.551 357.938C432.142 346.514 435.48 335.346 441.856 325.589C451.654 310.598 464.383 300.695 475.799 291.813L475.8 291.813C479.161 289.198 482.408 286.672 485.433 284.131C492.109 278.522 497.711 272.844 501.228 265.966C504.734 259.11 506.194 251.01 504.484 240.508C501.092 219.672 485.333 208.09 464.249 199.437C453.706 195.111 441.901 191.547 429.744 187.931L427.978 187.406C416.398 183.965 404.548 180.443 393.298 176.154C381.354 171.601 370.391 163.723 359.694 154.788C354.815 150.713 349.976 146.404 345.12 142.08L345.119 142.079L345.116 142.077L345.113 142.074L345.111 142.072C344.644 141.656 344.176 141.24 343.709 140.824C338.372 136.075 333.006 131.33 327.506 126.849ZM360.843 153.515C371.489 162.408 382.239 170.106 393.854 174.534C405.029 178.794 416.81 182.295 428.409 185.742L428.41 185.743L430.154 186.261C442.295 189.872 454.199 193.464 464.853 197.836C486.164 206.582 502.756 218.572 506.307 240.388C508.069 251.213 506.571 259.663 502.901 266.84C499.242 273.996 493.448 279.835 486.72 285.488C483.617 288.095 480.318 290.663 476.923 293.304C465.538 302.165 453.088 311.854 443.447 326.605C437.225 336.125 433.936 347.073 431.356 358.447C430.533 362.078 429.781 365.761 429.026 369.453L429.026 369.455L429.025 369.457L429.025 369.46L429.024 369.463C427.426 377.286 425.82 385.151 423.512 392.649C420.103 403.725 415.135 414.126 406.304 422.704C397.468 431.286 384.82 437.989 366.151 441.763C347.513 445.532 334.386 444.554 324.281 440.559C314.171 436.562 307.232 429.601 300.89 421.708C298.81 419.12 296.792 416.432 294.746 413.707C284.285 399.773 273.09 384.863 249.07 377.212C234.599 372.603 219.975 369.889 205.906 367.729C201.33 367.026 196.805 366.381 192.362 365.748C183.179 364.439 174.347 363.181 166.14 361.566C153.951 359.167 142.991 355.959 134.088 350.545C125.149 345.108 118.321 337.471 114.379 326.31C106.498 303.999 114.699 286.113 129.743 269.578C137.261 261.315 146.518 253.354 156.387 245.314C159.594 242.701 162.864 240.082 166.161 237.441L166.162 237.44C173.029 231.938 180.016 226.34 186.808 220.508C196.707 212.006 201.643 201.344 204.43 189.834C206.528 181.173 207.398 172.091 208.261 163.091L208.262 163.091L208.262 163.09C208.549 160.091 208.836 157.101 209.167 154.139C210.485 142.343 212.504 131.021 218.175 121.708C223.871 112.354 233.208 105.092 248.997 101.314C281.843 93.4549 306.467 107.499 328.635 125.559C334.174 130.072 339.571 134.844 344.906 139.592L346.229 140.77L346.306 140.839L346.307 140.839C351.17 145.17 355.988 149.46 360.843 153.515ZM256.796 124.26C284.701 117.583 305.617 129.417 324.842 145.079C329.651 148.997 334.343 153.146 339.01 157.3L339.514 157.748L340.238 158.392C344.488 162.177 348.725 165.949 352.996 169.517C362.356 177.336 371.959 184.238 382.427 188.228C392.271 191.981 402.639 195.062 412.766 198.072L412.766 198.072L412.769 198.073L412.769 198.073L414.316 198.532C424.95 201.695 435.27 204.811 444.485 208.593C462.913 216.156 476.646 226.261 479.603 244.425C481.095 253.59 479.821 260.654 476.764 266.631C473.697 272.63 468.808 277.586 462.972 282.49C460.332 284.708 457.495 286.914 454.558 289.199L454.556 289.201C444.569 296.971 433.416 305.647 424.836 318.775C419.249 327.324 416.327 337.107 414.06 347.103C413.323 350.349 412.657 353.61 411.994 356.859L411.993 356.861C410.604 363.664 409.224 370.422 407.227 376.912C404.286 386.466 400.038 395.314 392.552 402.585C385.071 409.851 374.301 415.596 358.219 418.847C342.108 422.105 331.015 421.206 322.636 417.893C314.26 414.582 308.447 408.803 302.973 401.99C301.208 399.794 299.48 397.49 297.714 395.134L297.711 395.13C288.554 382.916 278.371 369.334 256.723 362.439C243.923 358.362 231.018 355.97 218.679 354.076C214.628 353.454 210.645 352.886 206.747 352.331C198.745 351.191 191.104 350.102 183.973 348.699C173.381 346.614 164.061 343.861 156.569 339.304C149.113 334.77 143.43 328.428 140.124 319.069C133.51 300.343 140.288 285.258 153.277 270.981C159.776 263.838 167.8 256.933 176.423 249.908C179.208 247.639 182.057 245.356 184.936 243.05C190.954 238.228 197.102 233.303 203.062 228.185C212.026 220.486 216.461 210.85 218.945 200.59C220.807 192.901 221.583 184.804 222.34 176.905C222.59 174.301 222.837 171.72 223.121 169.181C224.271 158.886 226.015 149.267 230.796 141.415C235.553 133.603 243.359 127.474 256.796 124.26ZM382.983 186.608C372.844 182.742 363.454 176.02 354.145 168.244C349.9 164.698 345.687 160.947 341.433 157.159L341.432 157.158C341.025 156.795 340.617 156.432 340.208 156.068C335.541 151.915 330.819 147.739 325.971 143.79C306.569 127.984 284.99 115.669 256.203 122.556C242.367 125.867 234.177 132.234 229.179 140.441C224.207 148.607 222.439 158.529 221.286 168.849C220.996 171.442 220.745 174.058 220.494 176.682L220.493 176.682L220.493 176.683L220.493 176.684L220.493 176.685L220.493 176.686C219.738 184.557 218.978 192.491 217.145 200.059C214.71 210.114 210.4 219.419 201.762 226.838C195.823 231.939 189.713 236.834 183.707 241.645L183.707 241.646L183.707 241.646L183.706 241.646L183.706 241.646L183.706 241.646L183.706 241.646L183.706 241.646L183.706 241.647L183.705 241.647L183.705 241.647C180.821 243.957 177.961 246.249 175.155 248.535C166.521 255.568 158.42 262.536 151.838 269.77C138.667 284.245 131.468 299.927 138.38 319.496C141.838 329.285 147.83 335.988 155.673 340.758C163.48 345.506 173.084 348.316 183.751 350.415C190.932 351.828 198.661 352.93 206.695 354.075L206.697 354.075L206.699 354.075C210.584 354.629 214.54 355.193 218.54 355.807C230.844 357.696 243.628 360.069 256.276 364.097C277.244 370.776 287.01 383.782 296.161 395.969L296.161 395.97C297.952 398.355 299.719 400.708 301.542 402.977C307.095 409.886 313.181 415.996 322.056 419.505C330.925 423.011 342.433 423.863 358.749 420.564C375.096 417.259 386.178 411.389 393.924 403.866C401.665 396.347 406.017 387.232 409.001 377.535C411.021 370.972 412.428 364.085 413.827 357.239L413.827 357.236C414.487 354.006 415.145 350.784 415.865 347.611C418.121 337.665 420.994 328.103 426.427 319.79C434.85 306.902 445.723 298.441 455.68 290.692L455.68 290.691C458.651 288.379 461.541 286.131 464.259 283.847C470.148 278.899 475.228 273.781 478.437 267.505C481.658 261.207 482.971 253.794 481.426 244.305C478.31 225.16 463.744 214.647 445.09 206.992C435.763 203.164 425.345 200.02 414.725 196.862L413.202 196.409L413.201 196.409C403.054 193.393 392.753 190.332 382.983 186.608ZM322.285 162.57C305.715 149.071 287.719 138.895 263.71 144.64C252.147 147.407 245.44 152.676 241.354 159.387C237.242 166.139 235.74 174.415 234.748 183.294C234.504 185.479 234.291 187.704 234.076 189.948C233.422 196.763 232.752 203.759 231.144 210.399C228.998 219.263 225.164 227.597 217.41 234.257C212.268 238.673 206.963 242.923 201.771 247.083L201.771 247.083L201.771 247.083L201.771 247.083L201.77 247.083L201.77 247.083L201.77 247.084C199.287 249.073 196.83 251.041 194.429 252.997C186.992 259.056 180.076 265.008 174.477 271.162C163.285 283.463 157.468 296.435 163.152 312.53C165.993 320.572 170.874 326.018 177.279 329.913C183.72 333.83 191.739 336.201 200.87 337.998C207.017 339.207 213.601 340.146 220.501 341.129L220.502 341.129C223.865 341.608 227.302 342.098 230.801 342.635C241.446 344.27 252.586 346.334 263.637 349.854C282.357 355.816 291.169 367.571 299.068 378.108L299.068 378.109L299.068 378.109C300.591 380.14 302.079 382.125 303.598 384.015C308.315 389.885 313.31 394.847 320.5 397.69C327.694 400.534 337.233 401.312 351.117 398.505C364.97 395.705 374.238 390.758 380.673 384.508C387.112 378.253 390.77 370.64 393.303 362.409C395.024 356.816 396.213 350.996 397.411 345.131L397.411 345.13L397.411 345.128L397.412 345.125L397.412 345.123L397.413 345.12L397.413 345.118L397.414 345.115C397.986 342.315 398.559 339.505 399.195 336.704C401.151 328.079 403.675 319.625 408.505 312.235C415.917 300.895 425.555 293.396 434.172 286.693C436.704 284.723 439.148 282.823 441.42 280.913C446.451 276.687 450.654 272.423 453.29 267.267C455.916 262.134 457.012 256.065 455.729 248.182C453.189 232.581 441.401 223.893 425.521 217.376C417.58 214.117 408.686 211.431 399.512 208.703L398.177 208.306C389.442 205.71 380.493 203.051 371.995 199.811C362.944 196.361 354.646 190.395 346.569 183.648C342.882 180.569 339.225 177.313 335.56 174.048L334.502 173.107C330.476 169.524 326.431 165.947 322.285 162.57ZM347.717 182.375C355.744 189.079 363.828 194.865 372.551 198.191C380.974 201.401 389.854 204.041 398.608 206.642L398.608 206.642L399.921 207.033C409.08 209.757 418.073 212.47 426.126 215.775C442.232 222.384 454.853 231.481 457.552 248.061C458.888 256.268 457.753 262.686 454.964 268.141C452.185 273.574 447.791 278 442.708 282.27C440.357 284.245 437.861 286.187 435.296 288.184L435.296 288.184L435.296 288.184C426.71 294.866 417.35 302.15 410.096 313.25C405.42 320.404 402.945 328.637 401 337.213C400.38 339.946 399.813 342.722 399.244 345.508L399.244 345.509L399.244 345.509L399.243 345.509L399.243 345.509L399.243 345.51L399.243 345.51C398.037 351.417 396.821 357.367 395.078 363.032C392.5 371.406 388.739 379.287 382.045 385.789C375.346 392.296 365.765 397.368 351.647 400.223C337.559 403.071 327.604 402.339 319.92 399.301C312.231 396.261 306.962 390.968 302.167 385.002C300.591 383.04 299.063 381.006 297.517 378.947C289.625 368.437 281.23 357.258 263.19 351.512C252.29 348.04 241.272 345.995 230.661 344.366C227.215 343.837 223.804 343.351 220.454 342.873L220.451 342.873L220.449 342.873L220.448 342.872L220.448 342.872L220.447 342.872L220.446 342.872C213.516 341.884 206.844 340.933 200.648 339.714C191.442 337.903 183.138 335.475 176.383 331.367C169.591 327.236 164.401 321.429 161.408 312.956C155.425 296.018 161.664 282.451 173.037 269.951C178.72 263.705 185.714 257.691 193.161 251.624C195.582 249.652 198.05 247.675 200.537 245.682L200.54 245.68C205.72 241.53 210.988 237.31 216.109 232.911C223.538 226.531 227.247 218.528 229.344 209.869C230.923 203.349 231.578 196.516 232.229 189.73L232.229 189.729C232.446 187.464 232.663 185.203 232.913 182.961C233.908 174.058 235.434 165.479 239.737 158.414C244.064 151.308 251.155 145.799 263.117 142.937C288.008 136.981 306.667 147.637 323.414 161.281C327.599 164.689 331.674 168.293 335.699 171.876L336.754 172.815C340.425 176.083 344.057 179.318 347.717 182.375ZM274.212 175.574C292.308 171.244 305.872 178.901 318.413 189.118C321.551 191.675 324.615 194.383 327.667 197.099L328.47 197.814C331.249 200.289 334.024 202.76 336.822 205.097C342.951 210.217 349.269 214.762 356.171 217.393C362.622 219.852 369.415 221.871 376.035 223.839L377.051 224.14C384.008 226.209 390.739 228.242 396.746 230.707C408.759 235.637 417.595 242.175 419.502 253.884C420.468 259.822 419.642 264.381 417.671 268.234C415.689 272.109 412.526 275.323 408.718 278.521C407.004 279.961 405.158 281.397 403.243 282.887C396.706 287.972 389.364 293.683 383.726 302.31C380.046 307.942 378.126 314.377 376.642 320.923C376.157 323.059 375.72 325.198 375.286 327.327C374.379 331.769 373.481 336.165 372.178 340.397C370.263 346.621 367.503 352.361 362.651 357.073C357.805 361.78 350.816 365.515 340.345 367.632C329.844 369.755 322.662 369.16 317.266 367.027C311.875 364.895 308.121 361.173 304.555 356.735C303.41 355.311 302.287 353.812 301.136 352.277L301.136 352.276L301.136 352.276L301.136 352.276L301.135 352.275L301.135 352.275L301.135 352.274L301.135 352.274C295.145 344.282 288.414 335.3 274.139 330.753C265.742 328.079 257.281 326.512 249.206 325.272C246.548 324.864 243.938 324.492 241.387 324.128H241.387C236.16 323.383 231.178 322.673 226.524 321.758C219.61 320.397 213.565 318.606 208.719 315.66C203.91 312.735 200.247 308.65 198.112 302.604C193.838 290.504 198.197 280.742 206.661 271.439C210.896 266.784 216.13 262.279 221.767 257.686C223.585 256.206 225.446 254.714 227.328 253.207C231.266 250.052 235.293 246.826 239.194 243.476C245.113 238.392 248.034 232.033 249.667 225.289C250.89 220.24 251.4 214.916 251.896 209.745L251.896 209.743C252.059 208.045 252.22 206.364 252.404 204.714C253.156 197.986 254.292 191.748 257.386 186.667C260.455 181.626 265.494 177.66 274.212 175.574ZM356.727 215.772C350.153 213.267 344.05 208.902 337.971 203.824C335.202 201.511 332.454 199.064 329.673 196.588L329.671 196.586L329.667 196.583L329.665 196.58L328.865 195.868C325.813 193.153 322.719 190.417 319.542 187.829C306.824 177.467 292.597 169.33 273.619 173.871C264.502 176.052 259.079 180.258 255.769 185.693C252.484 191.088 251.324 197.629 250.569 204.382C250.379 206.089 250.214 207.807 250.049 209.527L250.049 209.527V209.528C249.556 214.669 249.061 219.83 247.867 224.758C246.284 231.298 243.487 237.326 237.894 242.129C234.013 245.462 230.024 248.658 226.098 251.803C224.211 253.315 222.338 254.816 220.499 256.314C214.851 260.915 209.54 265.482 205.221 270.228C196.577 279.729 191.796 290.088 196.367 303.031C198.655 309.507 202.627 313.953 207.823 317.113C212.983 320.252 219.313 322.099 226.302 323.474C231.007 324.4 236.077 325.123 241.337 325.872L241.339 325.872L241.343 325.873C243.88 326.235 246.462 326.603 249.067 327.003C257.107 328.237 265.446 329.785 273.692 332.412C287.287 336.742 293.601 345.148 299.584 353.112C300.759 354.677 301.922 356.225 303.124 357.721C306.768 362.256 310.796 366.309 316.686 368.638C322.572 370.965 330.169 371.514 340.875 369.349C351.611 367.179 358.912 363.318 364.023 358.353C369.129 353.394 371.994 347.387 373.953 341.02C375.278 336.716 376.203 332.189 377.119 327.705C377.55 325.595 377.979 323.495 378.447 321.431C379.92 314.936 381.791 308.721 385.317 303.325C390.798 294.939 397.86 289.442 404.366 284.378C406.315 282.862 408.214 281.384 410.005 279.879C413.865 276.636 417.22 273.261 419.344 269.108C421.479 264.934 422.344 260.025 421.325 253.764C419.259 241.075 409.59 234.129 397.351 229.106C391.232 226.595 384.402 224.535 377.46 222.47L376.467 222.175L376.467 222.175C369.828 220.202 363.103 218.203 356.727 215.772ZM314.854 213.504C306.013 206.301 296.521 200.959 283.855 203.989C277.75 205.45 274.244 208.219 272.109 211.725C269.95 215.271 269.15 219.637 268.619 224.391C268.49 225.548 268.376 226.73 268.262 227.927L268.261 227.931C267.911 231.59 267.548 235.379 266.679 238.966C265.517 243.764 263.433 248.309 259.201 251.944C256.44 254.315 253.587 256.6 250.801 258.832C249.472 259.898 248.157 260.951 246.876 261.995C242.891 265.241 239.202 268.417 236.22 271.695C230.263 278.242 227.242 285.057 230.221 293.489C231.708 297.7 234.253 300.535 237.596 302.568C240.975 304.624 245.208 305.882 250.085 306.841C253.368 307.487 256.876 307.987 260.566 308.513L260.568 308.513L260.572 308.514C262.376 308.771 264.224 309.034 266.11 309.324C271.824 310.201 277.824 311.312 283.783 313.21C293.975 316.456 298.795 322.891 303.03 328.545L303.031 328.546C303.841 329.628 304.63 330.681 305.431 331.677C307.941 334.801 310.555 337.384 314.293 338.862C318.036 340.342 323.053 340.77 330.447 339.275C337.812 337.786 342.707 335.164 346.095 331.873C349.488 328.578 351.424 324.559 352.772 320.18C353.689 317.199 354.32 314.111 354.959 310.978L354.96 310.976L354.96 310.976L354.96 310.975L354.961 310.973C355.268 309.466 355.578 307.948 355.923 306.428C356.974 301.793 358.338 297.211 360.963 293.194C364.973 287.06 370.205 282.99 374.83 279.393C376.179 278.343 377.477 277.334 378.677 276.325C381.362 274.07 383.57 271.822 384.95 269.123C386.32 266.446 386.898 263.274 386.223 259.123C384.898 250.988 378.773 246.426 370.313 242.954C366.082 241.218 361.338 239.784 356.417 238.321L355.695 238.107L355.695 238.106C351.018 236.716 346.205 235.286 341.633 233.543C336.705 231.665 332.207 228.425 327.866 224.799C325.884 223.143 323.918 221.393 321.954 219.644L321.387 219.138C319.228 217.218 317.067 215.307 314.854 213.504ZM329.015 223.526C333.306 227.11 337.589 230.169 342.189 231.923C346.686 233.637 351.43 235.047 356.128 236.443L356.826 236.651C361.732 238.11 366.576 239.571 370.918 241.353C379.604 244.917 386.562 249.888 388.046 259.003C388.774 263.477 388.157 266.999 386.624 269.997C385.101 272.974 382.701 275.383 379.964 277.683C378.687 278.756 377.338 279.806 375.956 280.881L375.953 280.884C371.359 284.46 366.406 288.315 362.554 294.21C360.084 297.989 358.768 302.351 357.728 306.936C357.4 308.385 357.097 309.864 356.793 311.353L356.793 311.353C356.144 314.53 355.486 317.749 354.547 320.803C353.155 325.325 351.115 329.611 347.467 333.154C343.815 336.701 338.607 339.45 330.977 340.992C323.379 342.528 317.946 342.147 313.713 340.474C309.476 338.798 306.588 335.884 304 332.664C303.141 331.595 302.314 330.494 301.479 329.383C297.251 323.758 292.848 317.898 283.335 314.868C277.528 313.019 271.65 311.927 265.97 311.055C264.136 310.773 262.315 310.513 260.523 310.258L260.52 310.258C256.796 309.727 253.198 309.214 249.863 308.558C244.911 307.583 240.394 306.269 236.7 304.022C232.969 301.754 230.116 298.557 228.476 293.915C225.2 284.641 228.642 277.23 234.781 270.484C237.846 267.114 241.613 263.876 245.607 260.622C246.905 259.565 248.224 258.508 249.553 257.443L249.56 257.438L249.568 257.431L249.571 257.429C252.345 255.207 255.16 252.951 257.901 250.598C261.807 247.242 263.766 243.029 264.879 238.435C265.718 234.968 266.066 231.343 266.414 227.712L266.414 227.711L266.415 227.71L266.415 227.709L266.415 227.708L266.415 227.706L266.415 227.705L266.415 227.704L266.415 227.703C266.532 226.487 266.649 225.27 266.784 224.058C267.318 219.28 268.142 214.611 270.492 210.751C272.867 206.851 276.758 203.842 283.263 202.286C296.809 199.045 306.965 204.868 315.983 212.215C318.235 214.049 320.427 215.987 322.584 217.907L323.149 218.41C325.117 220.163 327.059 221.892 329.015 223.526ZM292.732 230.145C300.398 228.311 306.143 231.524 311.578 235.951C312.939 237.06 314.27 238.237 315.605 239.425L315.957 239.738C317.171 240.819 318.391 241.906 319.622 242.934C322.317 245.185 325.14 247.223 328.251 248.409C331.093 249.493 334.082 250.381 336.971 251.24L336.972 251.24L337.423 251.374C340.469 252.28 343.385 253.161 345.981 254.226C351.17 256.356 354.8 259.1 355.589 263.945C355.997 266.451 355.646 268.346 354.831 269.941C354.004 271.557 352.674 272.917 351.024 274.303C350.296 274.915 349.504 275.53 348.677 276.174L348.675 276.175C345.81 278.404 342.52 280.962 340.01 284.802C338.357 287.332 337.503 290.208 336.851 293.085C336.635 294.038 336.442 294.984 336.251 295.919L336.25 295.922C335.856 297.852 335.471 299.738 334.908 301.568C334.083 304.25 332.905 306.685 330.855 308.676C328.81 310.662 325.841 312.26 321.337 313.171C316.802 314.088 313.779 313.814 311.557 312.936C309.34 312.059 307.775 310.525 306.237 308.611C305.752 308.007 305.272 307.365 304.775 306.701C302.155 303.2 299.094 299.109 292.66 297.06C288.945 295.877 285.211 295.186 281.67 294.642C280.493 294.462 279.344 294.298 278.225 294.138L278.223 294.138L278.223 294.138L278.222 294.138L278.222 294.138L278.221 294.138C275.946 293.814 273.794 293.507 271.774 293.11C268.772 292.519 266.208 291.751 264.178 290.517C262.184 289.304 260.669 287.619 259.778 285.097C257.992 280.042 259.78 275.941 263.43 271.929C265.259 269.919 267.526 267.966 269.988 265.96C270.776 265.318 271.586 264.669 272.407 264.012L272.409 264.01L272.411 264.009L272.412 264.008L272.414 264.006C274.138 262.625 275.908 261.207 277.618 259.738C280.298 257.436 281.611 254.562 282.339 251.555C282.882 249.314 283.109 246.939 283.327 244.671L283.327 244.665C283.397 243.93 283.467 243.207 283.545 242.502C283.873 239.567 284.363 236.924 285.663 234.79C286.937 232.697 289.032 231.03 292.732 230.145ZM328.807 246.789C326.024 245.728 323.415 243.87 320.771 241.661C319.567 240.655 318.371 239.59 317.152 238.505L316.803 238.194C315.469 237.007 314.107 235.803 312.707 234.662C307.095 230.09 300.687 226.397 292.14 228.442C288.04 229.422 285.561 231.329 284.046 233.817C282.555 236.264 282.041 239.21 281.711 242.17C281.626 242.927 281.553 243.684 281.481 244.437L281.481 244.439L281.481 244.441L281.481 244.442L281.48 244.444L281.48 244.447L281.48 244.449L281.48 244.452L281.479 244.453C281.265 246.693 281.052 248.903 280.539 251.025C279.86 253.827 278.672 256.37 276.318 258.392C274.627 259.845 272.893 261.234 271.179 262.606L271.179 262.606L271.169 262.615L271.147 262.632C270.331 263.286 269.52 263.936 268.72 264.587C266.247 266.602 263.903 268.616 261.991 270.718C258.16 274.929 255.95 279.626 258.033 285.523C259.076 288.476 260.9 290.523 263.282 291.971C265.627 293.397 268.475 294.221 271.552 294.826C273.624 295.234 275.867 295.554 278.177 295.883L278.184 295.884C279.288 296.041 280.408 296.201 281.531 296.373C285.037 296.912 288.649 297.583 292.213 298.718C297.967 300.551 300.612 304.067 303.224 307.539L303.226 307.542C303.746 308.233 304.265 308.923 304.807 309.597C306.422 311.607 308.261 313.473 310.977 314.547C313.689 315.619 317.128 315.846 321.867 314.888C326.636 313.923 329.917 312.2 332.227 309.956C334.531 307.718 335.813 305.016 336.683 302.192C337.268 300.289 337.68 298.272 338.083 296.3C338.271 295.382 338.456 294.475 338.656 293.593C339.297 290.766 340.102 288.11 341.6 285.818C343.953 282.217 346.964 279.874 349.799 277.666L349.802 277.664C350.662 276.994 351.507 276.337 352.311 275.661C354.014 274.23 355.535 272.708 356.504 270.814C357.483 268.899 357.873 266.654 357.412 263.825C356.464 258 352.001 254.848 346.585 252.625C343.878 251.514 340.864 250.605 337.832 249.704L337.405 249.577C334.496 248.712 331.574 247.844 328.807 246.789ZM299.149 249.061C303.199 248.092 306.234 249.765 309.205 252.185C309.95 252.793 310.681 253.438 311.421 254.097L311.616 254.271L311.617 254.271C312.288 254.869 312.969 255.476 313.657 256.05C315.161 257.306 316.772 258.476 318.569 259.161C320.16 259.767 321.832 260.264 323.429 260.738L323.683 260.814C325.374 261.317 326.967 261.799 328.38 262.379C331.205 263.538 333.03 264.967 333.431 267.432C333.645 268.748 333.46 269.72 333.044 270.532C332.618 271.366 331.924 272.083 331.022 272.841C330.635 273.166 330.208 273.497 329.758 273.848L329.757 273.849C328.164 275.086 326.278 276.552 324.852 278.733C323.902 280.187 323.419 281.83 323.055 283.435C322.931 283.98 322.822 284.513 322.716 285.035C322.5 286.094 322.292 287.111 321.985 288.109C321.538 289.562 320.909 290.852 319.83 291.9C318.756 292.943 317.181 293.8 314.745 294.292C312.278 294.791 310.696 294.629 309.574 294.186C308.457 293.744 307.652 292.968 306.817 291.929C306.561 291.61 306.303 291.265 306.033 290.904C304.583 288.961 302.794 286.564 299.076 285.38C296.985 284.714 294.889 284.327 292.92 284.025C292.256 283.923 291.613 283.832 290.991 283.743C289.737 283.564 288.564 283.397 287.456 283.179C285.809 282.855 284.453 282.443 283.398 281.801C282.38 281.182 281.609 280.329 281.15 279.028C280.227 276.416 281.123 274.277 283.105 272.098C284.1 271.005 285.338 269.937 286.7 268.828C287.132 268.476 287.579 268.118 288.033 267.755L288.036 267.752L288.038 267.75C288.995 266.984 289.983 266.192 290.934 265.375C292.491 264.038 293.246 262.372 293.66 260.66C293.968 259.391 294.097 258.039 294.218 256.777L294.218 256.776C294.257 256.373 294.294 255.98 294.337 255.601C294.518 253.981 294.784 252.584 295.461 251.472C296.114 250.4 297.188 249.53 299.149 249.061ZM319.125 257.54C317.657 256.98 316.259 255.991 314.806 254.777C314.144 254.224 313.487 253.639 312.811 253.037L312.618 252.866C311.879 252.208 311.118 251.535 310.334 250.896C307.186 248.331 303.488 246.178 298.556 247.358C296.196 247.922 294.737 249.032 293.844 250.498C292.976 251.924 292.686 253.623 292.502 255.269C292.453 255.704 292.412 256.134 292.371 256.559C292.253 257.792 292.139 258.981 291.86 260.13C291.496 261.637 290.865 262.971 289.634 264.029C288.702 264.829 287.751 265.591 286.806 266.349L286.805 266.349L286.805 266.349L286.804 266.349L286.804 266.35L286.804 266.35L286.803 266.35L286.803 266.351L286.803 266.351C286.343 266.719 285.885 267.086 285.432 267.455C284.06 268.573 282.744 269.703 281.666 270.887C279.503 273.264 278.185 275.999 279.405 279.454C280.017 281.186 281.096 282.401 282.502 283.255C283.871 284.088 285.513 284.557 287.234 284.896C288.393 285.124 289.656 285.304 290.941 285.487L290.942 285.487L290.942 285.487L290.943 285.487C291.553 285.574 292.168 285.662 292.78 285.756C294.715 286.053 296.689 286.421 298.629 287.039C301.666 288.006 303.039 289.827 304.482 291.742L304.483 291.743L304.488 291.749C304.78 292.136 305.075 292.527 305.387 292.916C306.299 294.051 307.379 295.158 308.995 295.797C310.606 296.434 312.604 296.549 315.275 296.009C317.976 295.463 319.863 294.48 321.202 293.18C322.535 291.885 323.269 290.329 323.76 288.732C324.089 287.662 324.324 286.515 324.549 285.414L324.549 285.413C324.652 284.91 324.753 284.416 324.86 283.943C325.213 282.388 325.647 280.966 326.443 279.749C327.712 277.808 329.318 276.556 330.88 275.34C331.364 274.962 331.845 274.589 332.309 274.198C333.264 273.396 334.149 272.517 334.718 271.406C335.297 270.273 335.521 268.951 335.254 267.312C334.693 263.867 332.035 262.029 328.985 260.777C327.46 260.152 325.768 259.642 324.092 259.144L323.861 259.075L323.86 259.075C322.244 258.594 320.641 258.118 319.125 257.54Z" fill="white" fill-opacity="0.7"/>
    </g>
    <defs>
        <filter id="filter0_f_397_1019" x="0" y="0" width="620.895" height="543.108" filterUnits="userSpaceOnUse" color-interpolation-filters="sRGB">
            <feFlood flood-opacity="0" result="BackgroundImageFix"/>
            <feBlend mode="normal" in="SourceGraphic" in2="BackgroundImageFix" result="shape"/>
            <feGaussianBlur stdDeviation="3.5" result="effect1_foregroundBlur_397_1019"/>
        </filter>
    </defs>
</svg>
